<svg id="Department_within_Division_2-line" data-name="Department within Division 2-line" xmlns="http://www.w3.org/2000/svg" viewBox="0 0 321.03 88.42"><defs><style>.cls-1{font-size:11.5px;font-family:OpenSans-Semibold, Open Sans;font-weight:700;letter-spacing:0.05em;}.cls-1,.cls-2,.cls-4{fill:#fff;}.cls-2{font-size:19px;font-family:OpenSans, Open Sans;letter-spacing:-0.02em;}.cls-3{fill:none;stroke:#fff;stroke-width:1.25px;}.cls-5{fill:#b1b3b6;}</style></defs><title>HPRC-Identity-ExternalLeft-Dark</title><text class="cls-1" transform="translate(96.94 69.57)">DIVISION OF RESEARCH</text><text class="cls-2" transform="translate(96.94 30.09)">High Performance</text><text class="cls-2" transform="translate(96.94 50.5)">Research Computing</text><line class="cls-3" x1="80.44" y1="17.42" x2="80.44" y2="70.6"/><path class="cls-4" d="M50.54,64.26a1.65,1.65,0,1,1,1.64,1.65,1.66,1.66,0,0,1-1.64-1.65m2.89,0a1.25,1.25,0,1,0-1.25,1.33,1.26,1.26,0,0,0,1.25-1.33m-1.88-.94h.7c.44,0,.68.16.68.55a.46.46,0,0,1-.48.5l.5.82h-.36l-.48-.8H51.9v.8h-.35Zm.35.8h.3c.21,0,.39,0,.39-.28s-.2-.25-.38-.25H51.9Z"/><polygon class="cls-4" points="66.24 36.48 60.95 36.48 60.64 36.48 60.51 36.76 56.66 44.75 52.81 36.76 52.68 36.48 52.37 36.48 47.26 36.48 46.77 36.48 46.77 36.97 46.77 39.7 46.77 40.18 47.26 40.18 48.13 40.18 48.13 51.63 47.18 51.63 46.69 51.63 46.69 52.12 46.69 54.84 46.69 55.33 47.18 55.33 52.93 55.33 53.42 55.33 53.42 54.84 53.42 52.12 53.42 51.63 52.93 51.63 51.94 51.63 51.94 43.51 56.23 52.36 56.67 53.26 57.11 52.36 61.44 43.48 61.44 51.63 60.5 51.63 60.01 51.63 60.01 52.12 60.01 54.84 60.01 55.33 60.5 55.33 66.24 55.33 66.73 55.33 66.73 54.84 66.73 52.12 66.73 51.63 66.24 51.63 65.25 51.63 65.25 40.18 66.24 40.18 66.73 40.18 66.73 39.7 66.73 36.97 66.73 36.48 66.24 36.48"/><path class="cls-4" d="M32.87,51.62H31.34l-5-11.5h1v-3.7h-8v3.7h1.1l-5,11.5H13.39v3.7h7.25v-3.7H19.59l.82-1.91h6l.83,1.91H26.1v3.7h7.26v-3.7ZM24.79,46H22l1.39-3.21Z"/><polygon class="cls-4" points="60.16 22.11 19.83 22.11 19.27 22.11 19.27 22.67 19.27 33.44 19.27 34 19.83 34 26.8 34 27.35 34 27.35 33.44 27.35 29.44 35.96 29.44 35.96 57.83 31.95 57.83 31.4 57.83 31.4 58.39 31.4 65.35 31.4 65.91 31.95 65.91 48.03 65.91 48.59 65.91 48.59 65.35 48.59 58.39 48.59 57.83 48.03 57.83 44.04 57.83 44.04 29.44 52.59 29.44 52.59 33.39 52.59 33.95 53.15 33.95 60.16 33.95 60.72 33.95 60.72 33.39 60.72 22.67 60.72 22.11 60.16 22.11"/><polygon class="cls-5" points="45.23 61.14 46.93 59.39 46.93 64.2 45.23 62.57 45.23 61.14"/><polygon class="cls-5" points="42.39 59.52 40.69 61.2 40.69 26.09 42.39 27.79 42.39 59.52"/><polygon class="cls-5" points="22.69 25.48 20.94 23.77 58.21 23.77 56 25.48 22.69 25.48"/><polygon class="cls-5" points="59.11 32.39 57.41 30.76 57.41 26.43 59.11 24.67 59.11 32.39"/></svg>